<?xml version="1.0" encoding="utf-8"?>
<!-- Generator: Adobe Illustrator 19.0.0, SVG Export Plug-In . SVG Version: 6.00 Build 0)  -->
<svg version="1.1" id="Calque_1" xmlns="http://www.w3.org/2000/svg" xmlns:xlink="http://www.w3.org/1999/xlink" x="0px" y="0px"
	 viewBox="106 195 512 512" style="enable-background:new 106 195 512 512;" xml:space="preserve">
<style type="text/css">
	.st0{fill:#67C96B;}
</style>
<g>
	<path class="st0" d="M337.5,449.3L110.9,675.9c-6.3,6.3-6.3,16.5,0,22.8c3.1,3.2,7.3,4.7,11.4,4.7c4.1,0,8.2-1.6,11.4-4.7
		L362,470.4l228.3,228.3c3.2,3.2,7.3,4.7,11.4,4.7s8.2-1.6,11.4-4.7c6.3-6.3,6.3-16.5,0-22.8L386.5,449.3l226.8-226.8
		c6.3-6.3,6.3-16.5,0-22.8c-6.3-6.3-16.5-6.3-22.8,0L362,428.2L133.5,199.7c-6.3-6.3-16.5-6.3-22.8,0c-6.3,6.3-6.3,16.5,0,22.8
		L337.5,449.3z"/>
</g>
</svg>
